<svg width="18" height="19" viewBox="0 0 18 19" fill="none" xmlns="http://www.w3.org/2000/svg">
<path d="M6.70081 2.39317V14.8376V15.7949C6.70081 15.7949 7.17944 17.2308 11.9658 17.2308C16.7521 17.2308 17.2307 15.7949 17.2307 15.7949V13.8803V2.39317H6.70081Z" fill="#FFC107"/>
<path d="M11.9658 2.8718C14.8736 2.8718 17.2308 2.22893 17.2308 1.4359C17.2308 0.642881 14.8736 7.62939e-06 11.9658 7.62939e-06C9.05807 7.62939e-06 6.70087 0.642881 6.70087 1.4359C6.70087 2.22893 9.05807 2.8718 11.9658 2.8718Z" fill="#FFC107"/>
<path d="M6.70087 4.3077C6.70087 4.3077 7.1795 5.74359 11.9658 5.74359C16.7521 5.74359 17.2308 4.3077 17.2308 4.3077V5.74359C17.2308 5.74359 16.7521 7.17949 11.9658 7.17949C7.1795 7.17949 6.70087 5.74359 6.70087 5.74359V4.3077ZM6.70087 8.61539C6.70087 8.61539 7.1795 10.0513 11.9658 10.0513C16.7521 10.0513 17.2308 8.61539 17.2308 8.61539V7.17949C17.2308 7.17949 16.7521 8.61539 11.9658 8.61539C7.1795 8.61539 6.70087 7.17949 6.70087 7.17949V8.61539ZM6.70087 11.4872C6.70087 11.4872 7.1795 12.9231 11.9658 12.9231C16.7521 12.9231 17.2308 11.4872 17.2308 11.4872V10.0513C17.2308 10.0513 16.7521 11.4872 11.9658 11.4872C7.1795 11.4872 6.70087 10.0513 6.70087 10.0513V11.4872ZM6.70087 14.359C6.70087 14.359 7.1795 15.7949 11.9658 15.7949C16.7521 15.7949 17.2308 14.359 17.2308 14.359V12.9231C17.2308 12.9231 16.7521 14.359 11.9658 14.359C7.1795 14.359 6.70087 12.9231 6.70087 12.9231V14.359ZM6.70087 2.8718C6.70087 2.8718 7.1795 4.3077 11.9658 4.3077C16.7521 4.3077 17.2308 2.8718 17.2308 2.8718V1.4359C17.2308 1.4359 16.7521 2.8718 11.9658 2.8718C7.1795 2.8718 6.70087 1.4359 6.70087 1.4359V2.8718Z" fill="#FF9800"/>
<path d="M10.5299 13.3534V15.3162V16.7526V17.1791C10.9612 17.2107 11.4331 17.2308 11.9658 17.2308C12.1348 17.2308 12.2865 17.225 12.4445 17.2212V16.7526V15.3162V13.3534C12.4445 10.8865 9.28357 10.4103 6.72815 10.1073L6.70087 11.973C8.90976 12.1439 10.5299 12.6962 10.5299 13.3534Z" fill="#F57C00"/>
<path d="M11.9658 12.9231C12.1218 12.9231 12.263 12.9178 12.4085 12.9145C12.3047 12.3066 11.9783 11.8433 11.5154 11.4786C7.68971 11.4001 6.86885 10.36 6.72813 10.1073L6.71521 11.0167C8.91692 11.1885 10.5304 11.7404 10.5304 12.3961V12.8709C10.9612 12.903 11.4331 12.9231 11.9658 12.9231Z" fill="#D66805"/>
<path d="M10.5299 14.3073V15.3162V15.7432C10.9612 15.7748 11.4331 15.7949 11.9658 15.7949C12.1348 15.7949 12.2865 15.7891 12.4444 15.7853V15.3162V14.3494C12.2865 14.3532 12.1348 14.359 11.9658 14.359C11.4331 14.359 10.9612 14.3389 10.5299 14.3073Z" fill="#D66805"/>
<path d="M10.5299 11.9658H0V16.274H10.5299V11.9658Z" fill="#CFD8DC"/>
<path d="M0 15.3162C0 15.3162 0.478632 16.7521 5.26496 16.7521C10.0513 16.7521 10.5299 15.3162 10.5299 15.3162V17.2308C10.5299 17.2308 10.0513 18.6667 5.26496 18.6667C0.478632 18.6667 0 17.2308 0 17.2308V15.3162Z" fill="#CFD8DC"/>
<path d="M5.26496 12.9231C8.17271 12.9231 10.5299 12.2802 10.5299 11.4872C10.5299 10.6942 8.17271 10.0513 5.26496 10.0513C2.3572 10.0513 0 10.6942 0 11.4872C0 12.2802 2.3572 12.9231 5.26496 12.9231Z" fill="#CFD8DC"/>
<path d="M0 11.4872C0 11.4872 0.478632 12.9231 5.26496 12.9231C10.0513 12.9231 10.5299 11.4872 10.5299 11.4872V12.9231C10.5299 12.9231 10.0513 14.359 5.26496 14.359C0.478632 14.359 0 12.9231 0 12.9231V11.4872Z" fill="#90A4AE"/>
<path d="M0 14.359C0 14.359 0.478632 15.7949 5.26496 15.7949C10.0513 15.7949 10.5299 14.359 10.5299 14.359V15.7949C10.5299 15.7949 10.0513 17.2308 5.26496 17.2308C0.478632 17.2308 0 15.7949 0 15.7949V14.359Z" fill="#90A4AE"/>
</svg>
