<svg width="30" height="30" viewBox="0 0 30 30" fill="none" xmlns="http://www.w3.org/2000/svg">
<path d="M9.52266 0C4.27266 0 0 4.27266 0 9.52266C0 14.775 4.27266 19.0477 9.52266 19.0477C9.54609 19.0477 9.57422 19.0477 9.59766 19.0477C9.80391 17.2195 10.4695 15.532 11.4773 14.1C11.0789 14.25 10.6477 14.3414 10.1742 14.3414C8.03203 14.3414 6.77812 13.0875 6.36094 10.5281H5.35781L5.71172 9.76641H6.30469V9.11484H5.35781L5.71172 8.33437H6.43594C6.67266 7.26094 7.03125 6.42187 7.62656 5.76562C8.28281 5.05312 9.10312 4.70625 10.1742 4.70625C10.95 4.70625 11.782 5.00859 12.5555 5.54297L11.9039 6.54844C11.3086 5.95312 10.6641 5.65547 10.0078 5.65547C9.35156 5.65547 8.80547 5.95781 8.38828 6.49219C8.03203 6.96797 7.8 7.50234 7.68281 8.27812H11.4211L11.0672 9.03984H7.62656V9.71016H10.9008L10.5281 10.4719H7.68281C7.98047 12.3773 8.80547 13.3359 10.1742 13.3359C10.5914 13.3359 10.9523 13.275 11.3086 13.0945C11.5477 12.9773 11.8453 12.7453 12.2016 12.3891V13.1695C13.9172 11.2195 16.3289 9.9 19.0477 9.59766C19.0477 9.57422 19.0477 9.54609 19.0477 9.52266C19.0477 4.27266 14.775 0 9.52266 0ZM23.9766 0.166406L21 3.14297L20.5922 3.57187L21 3.99844L23.9766 6.975L24.832 6.11953L22.8797 4.16719H25.5961C27.2344 4.16719 28.5703 5.50312 28.5703 7.14375V10.7133H29.7609V7.14375C29.7609 4.85391 27.8836 2.97656 25.5961 2.97656H22.8797L24.832 1.02422L23.9766 0.166406ZM20.2383 10.7133C14.9883 10.7133 10.7133 14.9883 10.7133 20.2383C10.7133 25.4883 14.9883 29.7609 20.2383 29.7609C25.4883 29.7609 29.7609 25.4883 29.7609 20.2383C29.7609 14.9883 25.4883 10.7133 20.2383 10.7133ZM19.9969 14.3977H20.7211V15.2906C21.4359 15.3516 22.0172 15.6562 22.432 16.0711C22.8492 16.4883 23.1469 17.1398 23.325 17.9133H22.2094C22.0312 17.0203 21.5531 16.5492 20.7211 16.3687V19.643L21.4852 19.8844C21.6633 19.9453 21.8414 20.0086 22.0805 20.1258C22.3172 20.2453 22.568 20.3555 22.8047 20.5922C23.0414 20.7703 23.2078 21.0187 23.325 21.3164C23.5055 21.6141 23.5687 21.9609 23.5687 22.3781C23.5687 22.793 23.5055 23.2148 23.325 23.5125C23.2078 23.8711 22.9687 24.1687 22.7297 24.4055C22.493 24.6422 22.1953 24.8203 21.8367 25.0008C21.4805 25.118 21.1242 25.2422 20.6484 25.2422V26.3016H19.9406V25.2422C19.0477 25.1812 18.3328 24.8273 17.857 24.293C17.3227 23.7586 17.025 23.032 16.9641 22.0805H18.0984C18.0375 22.7344 18.2672 23.2148 18.5648 23.5125C18.9211 23.8711 19.35 24.0445 19.8844 24.1641V20.6484C19.4086 20.5289 18.9914 20.4117 18.6937 20.2945C18.3352 20.175 18.0937 20.0086 17.857 19.8281C17.6203 19.65 17.4328 19.4016 17.3742 19.1039C17.2547 18.8062 17.2055 18.5156 17.2055 18.0984C17.2055 17.6836 17.2687 17.318 17.4469 17.0203C17.5664 16.6617 17.8055 16.425 18.0422 16.1273C18.2812 15.8906 18.5789 15.7102 18.9352 15.532C19.2937 15.4125 19.6383 15.2906 19.9969 15.2906V14.3977ZM19.8844 16.425C19.5258 16.425 19.1039 16.5539 18.8062 16.8516C18.5086 17.093 18.3961 17.4914 18.3961 17.9695C18.3961 18.2062 18.45 18.3844 18.5086 18.5648C18.5695 18.743 18.6867 18.8742 18.8062 18.9914C18.9234 19.1109 19.1109 19.1719 19.2891 19.2891C19.4695 19.35 19.7062 19.4742 19.8844 19.5305V16.425ZM0 19.0477V22.6195C0 24.907 1.87969 26.7867 4.16719 26.7867H6.88359L4.92891 28.7391L5.78437 29.5945L8.76094 26.618L9.17109 26.1914L8.76094 25.7625L5.78437 22.7859L4.92891 23.6414L6.88359 25.5961H4.16719C2.52656 25.5961 1.19062 24.2578 1.19062 22.6195V19.0477H0ZM20.6484 20.8898V24.218C20.8852 24.1594 21.1383 24.1125 21.3164 24.0516C21.4969 23.9906 21.7195 23.8734 21.8367 23.7539C22.0172 23.6344 22.1484 23.4516 22.2094 23.2148C22.2703 23.0344 22.3219 22.7437 22.3219 22.507C22.3219 22.2703 22.2703 22.0172 22.2094 21.8367C22.1484 21.6586 22.0172 21.5461 21.8367 21.4289C21.6586 21.3094 21.4969 21.1922 21.3164 21.1312C21.0797 21.0703 20.8852 20.9484 20.6484 20.8898Z" fill="#476D55"/>
</svg>
