<svg width="26" height="18" viewBox="0 0 26 18" fill="none" xmlns="http://www.w3.org/2000/svg">
<path fill-rule="evenodd" clip-rule="evenodd" d="M19.4015 0.314622C19.7565 -0.0402988 20.3319 -0.0402988 20.6868 0.314622L24.7766 4.40437C25.0365 4.66429 25.1142 5.05519 24.9736 5.3948C24.8329 5.73441 24.5015 5.95584 24.1339 5.95584H1.41313C0.911197 5.95584 0.504299 5.54894 0.504299 5.04701C0.504299 4.54507 0.911197 4.13818 1.41313 4.13818H21.9398L19.4015 1.5999C19.0466 1.24498 19.0466 0.669543 19.4015 0.314622ZM0.57348 12.4243C0.71415 12.0847 1.04554 11.8632 1.41313 11.8632L24.1339 11.8632C24.6359 11.8632 25.0428 12.2701 25.0428 12.7721C25.0428 13.274 24.6359 13.6809 24.1339 13.6809L3.60725 13.6809L6.14551 16.2192C6.50044 16.5741 6.50044 17.1495 6.14551 17.5045C5.79059 17.8594 5.21515 17.8594 4.86023 17.5045L0.77049 13.4147C0.510566 13.1548 0.43281 12.7639 0.57348 12.4243Z" fill="#868686"/>
</svg>
