<svg width="18" height="18" viewBox="0 0 18 18" fill="none" xmlns="http://www.w3.org/2000/svg">
<path d="M18 9C18 13.9698 13.9698 18 9 18C4.0302 18 0 13.9698 0 9C0 4.0302 4.0302 0 9 0C13.9698 0 18 4.0302 18 9Z" fill="#FFC107"/>
<path d="M5.84998 13.5V4.5H9.53953C10.624 4.5 11.4448 4.70925 12.0055 5.12775C12.5662 5.54625 12.8457 6.1596 12.8457 6.96645C12.8457 7.40745 12.7332 7.79625 12.51 8.13195C12.285 8.46765 11.9722 8.7138 11.5713 8.8704C12.0285 8.9865 12.3885 9.21825 12.6522 9.57015C12.9163 9.91935 13.05 10.3464 13.05 10.8544C13.05 11.7193 12.7759 12.375 12.2274 12.8196C11.6788 13.2642 10.8985 13.491 9.88423 13.5H5.84998ZM7.64998 8.1H9.61333C10.5417 8.08425 11.0074 7.7292 11.0074 6.99975C11.0074 6.59205 10.8895 6.2982 10.6542 6.1191C10.4188 5.94 10.0476 5.85 9.53953 5.85H7.64998V8.1ZM7.64998 9.45V12.15H9.82978C10.2622 12.15 11.25 11.939 11.25 10.976C11.25 10.013 10.7473 9.46215 9.89998 9.45H7.64998Z" fill="#FFF8E1"/>
<path d="M7.19995 3.15H8.54995V5.4H7.19995V3.15Z" fill="#FFF8E1"/>
<path d="M9.44995 3.15H10.8V5.4H9.44995V3.15Z" fill="#FFF8E1"/>
<path d="M7.19995 12.6H8.54995V14.85H7.19995V12.6Z" fill="#FFF8E1"/>
<path d="M9.44995 12.6H10.8V14.85H9.44995V12.6Z" fill="#FFF8E1"/>
</svg>
