<svg width="22" height="22" viewBox="0 0 22 22" fill="none" xmlns="http://www.w3.org/2000/svg">
<path d="M11 0C4.9348 0 0 4.9348 0 11C0 17.0652 4.9348 22 11 22C17.0652 22 22 17.0652 22 11C22 4.9348 17.0652 0 11 0ZM11 1.69231C16.1496 1.69231 20.3077 5.85036 20.3077 11C20.3077 16.1496 16.1496 20.3077 11 20.3077C5.85036 20.3077 1.69231 16.1496 1.69231 11C1.69231 5.85036 5.85036 1.69231 11 1.69231ZM11 4.23077C8.67308 4.23077 6.76923 6.13462 6.76923 8.46154C6.76923 9.74399 7.36749 10.8843 8.27644 11.6611C6.3726 12.6493 5.07692 14.6391 5.07692 16.9231H6.76923C6.76923 14.5763 8.65324 12.6923 11 12.6923C13.3468 12.6923 15.2308 14.5763 15.2308 16.9231H16.9231C16.9231 14.6391 15.6274 12.6493 13.7236 11.6611C14.6325 10.8843 15.2308 9.74399 15.2308 8.46154C15.2308 6.13462 13.3269 4.23077 11 4.23077ZM11 5.92308C12.4114 5.92308 13.5385 7.05018 13.5385 8.46154C13.5385 9.8729 12.4114 11 11 11C9.58864 11 8.46154 9.8729 8.46154 8.46154C8.46154 7.05018 9.58864 5.92308 11 5.92308Z" fill="#414649"/>
</svg>
